<svg width="640" height="177" fill="none" xmlns="http://www.w3.org/2000/svg"><path fill-rule="evenodd" clip-rule="evenodd" d="M17.107 0H0v138.144h17.107V0zM225.91 35.77c-17.398 0-30.958 8.843-38.122 20.719-5.629 9.349-7.676 19.961-7.676 31.837 0 14.149 4.094 27.288 12.537 36.89 7.676 9.096 19.189 14.907 33.517 14.907 9.467 0 18.422-2.779 25.586-7.58 8.187-5.559 14.072-14.655 15.607-24.509h-16.63c-1.28 5.306-3.071 8.086-5.885 10.865-4.094 4.295-10.746 6.569-18.678 6.569-7.676 0-13.816-2.526-18.422-7.074-6.14-6.065-9.722-15.919-9.722-25.015h71.384l.256-10.107c.256-13.391-4.605-26.278-12.793-35.121-7.676-7.58-17.91-12.381-30.959-12.381zm-27.636 43.46c.511-14.656 9.466-29.31 27.632-29.31 8.955 0 15.608 3.537 19.957 9.096 4.094 5.306 6.141 12.886 6.141 20.213h-53.73zM327.82 36.777c-11.196 0-24.174 5.545-30.027 15.375l-3.053-12.854h-12.978V176.91h16.795v-50.155c5.343 9.074 18.321 14.114 29.009 14.114 11.705 0 20.866-4.032 27.482-10.081 10.178-9.578 15.268-25.204 15.268-42.342 0-16.382-4.835-31.505-14.505-41.082-6.107-6.553-15.777-10.585-27.991-10.585zm-2.792 90.241c-7.38 0-12.214-3.025-16.286-6.553-8.397-7.309-11.196-19.155-11.196-31.505 0-12.35 2.799-24.447 11.196-31.504 4.072-3.529 8.906-6.553 16.286-6.553 22.393 0 28.245 19.91 28.245 38.057 0 18.147-5.852 38.058-28.245 38.058zm65.04-70.53c7.164-11.876 20.724-20.72 38.123-20.72 13.048 0 23.283 4.802 30.958 12.382 8.188 8.843 13.049 21.73 12.793 35.121l-.256 10.107h-71.384c0 9.096 3.582 18.95 9.723 25.015 4.605 4.548 10.746 7.074 18.421 7.074 7.932 0 14.584-2.274 18.678-6.569 2.814-2.779 4.605-5.559 5.885-10.865h16.631c-1.536 9.854-7.42 18.95-15.608 24.509-7.164 4.801-16.119 7.58-25.586 7.58-14.328 0-25.841-5.811-33.517-14.907-8.443-9.602-12.537-22.741-12.537-36.89 0-11.876 2.047-22.488 7.676-31.837zm38.117-6.57c-18.166 0-27.121 14.655-27.632 29.31h53.73c0-7.327-2.047-14.907-6.141-20.213-4.349-5.56-11.002-9.097-19.957-9.097zM528.81 35.774c-17.398 0-30.958 8.843-38.122 20.719-5.629 9.349-7.676 19.96-7.676 31.836 0 14.15 4.094 27.289 12.537 36.891 7.676 9.096 19.189 14.907 33.517 14.907 9.467 0 18.422-2.779 25.586-7.58 8.188-5.559 14.072-14.655 15.607-24.509h-16.63c-1.28 5.306-3.071 8.085-5.885 10.865-4.094 4.295-10.746 6.569-18.678 6.569-7.675 0-13.816-2.526-18.421-7.075-6.141-6.064-9.723-15.918-9.723-25.014h71.384l.256-10.107c.256-13.392-4.605-26.278-12.793-35.121-7.675-7.58-17.91-12.381-30.959-12.381zm-27.635 43.455c.512-14.655 9.467-29.31 27.633-29.31 8.955 0 15.607 3.538 19.957 9.097 4.093 5.306 6.14 12.886 6.14 20.213h-53.73zM640 51.403l-3.825-12.138-35.452 12.391-3.061-12.897h-13.008v99.384h16.834V67.588L640 51.403zM34.214 38.76H51.32v99.384H34.214V38.759zM53.334 0H34.216v18.883h19.12V0z" fill="#000"/><path fill-rule="evenodd" clip-rule="evenodd" d="M88.455 36.423H67.642v20.813h20.813V36.423zm41.626 0h-20.813v20.813h20.813V36.423zm0 83.252h-20.813v20.813h20.813v-20.813zm20.813-83.252h20.813v20.813h-20.813V36.423zm-20.813 41.626h20.813v20.813h-20.813V78.049zm-20.813 0H88.455v20.813h20.813V78.049z" fill="url(#paint0_linear)"/><defs><linearGradient id="paint0_linear" x1="67.644" y1="88.398" x2="171.707" y2="88.399" gradientUnits="userSpaceOnUse"><stop stop-color="#00A55F"/><stop offset="1" stop-color="#4CF1AC"/></linearGradient></defs></svg>